# xmcd CD database file
#
# Track frame offsets:
#	150
#	39082
#	73085
#	99681
#	133512
#	170707
#	203835
#	220304
#	229749
#	237658
#
# Disc length: 3629 seconds
#
# Revision: 0
# Processed by: cddbd v1.5.2PL0 Copyright (c) Steve Scherf et al.
# Submitted via: CDex 2.03
#
DISCID=920e2b0a
DTITLE=Karolina Strassmayer - Adventures
DYEAR=2008
DGENRE=Jazz
TTITLE0=Adventures
TTITLE1=An Ocean Apart
TTITLE2=Central Park West
TTITLE3=The Orchid
TTITLE4=Simone
TTITLE5=Showing Up
TTITLE6=It Is What It Is
TTITLE7=Nothing Left To Do
TTITLE8=Something New
TTITLE9=Isfahan
EXTD=YEAR: 2008
EXTT0=
EXTT1=
EXTT2=
EXTT3=
EXTT4=
EXTT5=
EXTT6=
EXTT7=
EXTT8=
EXTT9=
PLAYORDER=
